{"title":"Arrow.The.Ultimate.Weapon.2011.HDRip.XviD.AC3-JSB","uid":6897176,"size":1475724620,"categoryP":"video","categoryS":"movies","magnet":"?xt=urn:btih:427c11c293e40223ddaf3e6be28efcf9bb47da9e&amp;dn=Arrow.The.Ultimate.Weapon.2011.HDRip.XviD.AC3-JSB&amp;tr=udp%3A%2F%2Ftracker.openbittorrent.com%3A80&amp;tr=udp%3A%2F%2Fopen.demonii.com%3A1337&amp;tr=udp%3A%2F%2Ftracker.coppersurfer.tk%3A6969&amp;tr=udp%3A%2F%2Fexodus.desync.com%3A6969","seeders":1,"leechers":1,"uploader":"maximersk","files":4,"time":1324240611,"description":"Arrow.The.Ultimate.Weapon.2011.HDRip.XviD.AC3-JSB\n\n\n\n\nSubtitles : Bulgarian\n\n\n\nGeneral\nComplete name : Arrow.The.Ultimate.Weapon.2011.HDRip.XviD.AC3-JSB(Arrow.The.Ultimate.Weapon.2011).HDRip.XviD.AC3-JSB.avi\nFormat : AVI\nFormat/Info : Audio Video Interleave\nFormat profile : OpenDML\nFile size : 1.37 GiB\nDuration : 1h 54mn\nOverall bit rate : 1 721 Kbps\nWriting application : PotEncoder.\nVideo #0\nID : 0\nFormat : MPEG-4 Visual\nFormat profile : Simple@L1\nFormat settings, BVOP : No\nFormat settings, QPel : No\nFormat settings, GMC : No warppoints\nFormat settings, Matrix : Default (MPEG)\nCodec ID : XVID\nCodec ID/Hint : XviD\nDuration : 1h 54mn\nBit rate : 1 325 Kbps\nWidth : 720 pixels\nHeight : 400 pixels\nDisplay aspect ratio : 16:9\nFrame rate : 23.976 fps\nResolution : 24 bits\nColorimetry : 4:2:0\nScan type : Progressive\nBits/(Pixel*Frame) : 0.192\nStream size : 1.06 GiB (77%)\nWriting library : Lavc52.108.0.\nAudio #1\nID : 1\nFormat : AC-3\nFormat/Info : Audio Coding 3\nCodec ID : 2000\nDuration : 1h 54mn\nBit rate mode : Constant\nBit rate : 384 Kbps\nChannel(s) : 6 channels\nChannel positions : Front: L C R, Surround: L R, LFE\nSampling rate : 48.0 KHz\nResolution : 16 bits\nStream size : 314 MiB (22%)\nAlignment : Aligned on interleaves\nInterleave, duration : 32 ms (0.77 video frame)\nInterleave, preload duration : 32 ms.\n\n\n\n","torrent":{"xt":"urn:btih:427c11c293e40223ddaf3e6be28efcf9bb47da9e","amp;dn":"Arrow.The.Ultimate.Weapon.2011.HDRip.XviD.AC3-JSB","amp;tr":["udp%3A%2F%2Ftracker.openbittorrent.com%3A80","udp%3A%2F%2Fopen.demonii.com%3A1337","udp%3A%2F%2Ftracker.coppersurfer.tk%3A6969","udp%3A%2F%2Fexodus.desync.com%3A6969"],"infoHash":"427c11c293e40223ddaf3e6be28efcf9bb47da9e","infoHashBuffer":{"type":"Buffer","data":[66,124,17,194,147,228,2,35,221,175,62,107,226,142,252,249,187,71,218,158]},"announce":[],"urlList":[]}}